<svg width="824" height="612" viewBox="0 0 824 612" fill="none" xmlns="http://www.w3.org/2000/svg">
<path d="M216.911 174.514C216.65 172.445 216.121 170.42 215.337 168.488C215.237 168.123 215.062 167.782 214.824 167.488C214.585 167.194 214.288 166.953 213.951 166.78C213.5 166.663 213.028 166.658 212.575 166.765L205.51 167.846C204.919 167.873 204.353 168.093 203.898 168.472C202.978 169.44 203.884 170.998 203.856 172.332C203.825 173.833 202.491 175.052 201.044 175.455C199.568 175.753 198.045 175.734 196.577 175.399L186.699 173.865C189.608 172.936 192.197 171.208 194.171 168.878C195.471 167.338 196.163 164.464 194.284 163.735C193.726 163.581 193.144 163.535 192.569 163.597C188.093 163.632 184.571 159.895 180.382 158.322C177.7 157.38 174.789 157.31 172.065 158.122C169.342 158.933 166.944 160.586 165.216 162.842L170.479 163.096C170.974 163.068 171.465 163.199 171.88 163.47C173.033 164.417 171.6 166.237 171.762 167.72C171.973 169.648 174.533 170.059 176.462 170.254C178.391 170.449 180.839 172.016 179.911 173.719C170.214 177.059 160.346 167.19 150.162 168.405C147.584 168.713 145.151 169.725 142.634 170.362C127.262 174.251 111.369 163.874 95.6653 166.072C92.1741 166.667 88.7429 167.572 85.4123 168.776C83.275 169.477 81.0456 170.236 79.4926 171.863C77.9397 173.49 77.3486 176.273 78.8198 177.975C74.7648 178.309 70.6827 177.921 66.7633 176.829C67.8232 177.418 68.7049 178.282 69.316 179.329C69.927 180.377 70.2448 181.569 70.2359 182.781C63.9046 183.814 57.7408 185.693 51.9105 188.369C52.9987 190.178 54.2696 191.871 55.7034 193.421L47.688 198.57C50.396 199.252 51.7961 202.944 50.2213 205.25C53.0292 204.001 54.7694 200.77 57.7719 200.115C59.739 199.686 61.7405 200.49 63.6066 201.246C65.4727 202.002 67.5237 202.735 69.4554 202.168C71.3872 201.6 72.8121 199.096 71.5846 197.5C79.8415 195.091 88.3748 193.758 96.973 193.534C97.6364 193.451 98.3091 193.578 98.8958 193.899C100.015 194.675 99.7206 196.352 99.6603 197.713C99.6 199.074 100.661 200.862 101.877 200.249C100.446 201.49 101.669 203.826 103.042 205.13C104.415 206.435 106.07 208.235 105.229 209.933C105.01 210.376 104.638 210.73 104.427 211.177C103.804 212.496 104.793 214.035 105.96 214.911C107.127 215.787 108.556 216.399 109.367 217.613C110.177 218.826 109.809 220.95 108.36 221.119L104.24 215.889C102.833 217.348 101.868 219.177 101.457 221.162C105.826 224.733 106.483 232.001 102.826 236.297C100.957 238.492 98.2989 239.826 95.9792 241.539C93.6596 243.251 91.5132 245.69 91.519 248.573C91.5291 253.554 91.1221 258.181 92.9887 262.799C96.4309 271.314 100.405 279.604 104.887 287.621C106.065 289.726 107.586 292.033 109.971 292.396C106.957 285.06 104.244 277.61 101.832 270.046C103.403 270.052 105.218 270.177 106.139 271.449C106.902 272.503 106.738 273.936 106.975 275.215C107.277 276.454 107.779 277.636 108.463 278.712L122.854 304.345C124.047 306.47 125.416 308.75 127.696 309.611C129.154 310.161 130.84 310.057 132.182 310.85C133.234 311.47 133.942 312.572 135.014 313.157C138.046 314.811 142.261 311.64 145.095 313.614C145.905 314.178 146.42 315.075 147.166 315.722C149.783 317.987 154.075 316.472 157.096 318.162C159.043 319.251 160.051 321.43 161.09 323.404C163.691 328.349 167.899 333.194 173.473 333.588C175.224 333.711 177.013 333.379 178.724 333.769C180.436 334.158 182.12 335.652 181.846 337.385C181.375 340.357 182.843 343.611 182.449 346.594C181.73 352.028 174.023 354.415 173.36 359.856C173.215 361.047 173.442 362.277 173.159 363.443C172.811 364.872 171.738 366.036 171.356 367.456C170.633 370.148 172.562 372.827 174.681 374.638C176.8 376.449 179.328 378.011 180.486 380.546C181.71 383.225 181.109 386.35 181.507 389.269C182.376 395.641 187.881 400.365 193.546 403.411C195.272 404.339 197.125 405.238 198.243 406.848C199.701 408.949 199.556 411.72 200.042 414.23C201.235 420.38 206.412 425.446 206.559 431.708C206.663 436.159 204.189 440.197 202.711 444.397C201.325 448.42 200.824 452.696 201.241 456.931C201.658 461.166 202.984 465.261 205.128 468.937C206.233 470.804 207.556 472.564 208.338 474.588C209.734 478.2 209.281 482.305 210.568 485.957C212.269 490.785 216.945 494.772 216.497 499.872C218.62 504.279 223.307 506.445 228.02 507.757L236.467 510.108C238.084 510.558 239.774 511.012 241.421 510.686C243.068 510.36 244.64 508.992 244.597 507.314C240.455 506.38 236.18 505.387 232.765 502.863C229.351 500.339 227.012 495.844 228.307 491.801C228.908 489.926 230.186 487.761 228.971 486.212C228.275 485.325 227.003 485.093 226.218 484.284C224.994 483.021 225.415 480.901 226.295 479.379C227.175 477.856 228.447 476.496 228.802 474.774C228.981 473.811 228.861 472.816 228.459 471.922C228.056 471.029 227.39 470.28 226.549 469.776C228.116 469.185 229.54 468.271 230.73 467.093C231.83 465.838 232.338 463.902 231.473 462.475C234.041 462.801 237.074 462.96 238.76 460.996C240.106 459.427 240.014 457.082 239.482 455.084C238.95 453.087 238.05 451.146 238.022 449.079C243.947 449.36 249.885 449.159 255.778 448.477C254.926 445.608 252.989 443.183 250.379 441.717C253.048 441.266 255.479 438.071 256.322 435.5C257.165 432.928 256.95 430.127 256.429 427.471C256.229 426.788 256.202 426.065 256.349 425.368C256.65 424.41 257.591 423.826 258.461 423.326L271.707 415.72C272.498 415.324 273.214 414.795 273.825 414.156C275.213 412.526 275.008 410.066 274.297 408.046C273.586 406.027 272.448 404.128 272.175 402.005C271.356 395.656 278.154 391.1 280.448 385.123C281.348 382.777 281.531 380.228 281.706 377.721C281.893 375.029 281.907 371.902 279.84 370.168C277.858 368.505 274.762 368.876 272.688 367.329C270.787 365.911 270.132 363.157 268.055 362.011C266.169 360.971 263.804 361.633 261.707 361.143C258.013 360.282 255.689 356.026 251.917 355.632C249.789 355.41 247.381 356.45 245.636 355.21C244.099 354.119 244.038 351.924 243.745 350.061C243.233 347.167 241.845 344.499 239.77 342.417C237.694 340.335 235.031 338.94 232.138 338.418C229.944 338.066 227.555 338.199 225.688 336.994C223.798 335.773 222.932 333.487 221.447 331.796C219.054 329.071 215.285 328.103 211.755 327.273L197.394 323.898C194.845 323.298 191.559 322.981 190.191 325.214C189.786 326.064 189.5 326.965 189.339 327.893C188.826 329.572 187.795 331.044 186.393 332.1C184.99 333.155 183.289 333.739 181.534 333.767C180.331 331.714 178.381 330.206 176.092 329.556C174.636 329.15 173.077 329.105 171.688 328.508C170.932 328.139 170.259 327.62 169.71 326.981C169.162 326.343 168.749 325.6 168.498 324.796C168.247 323.993 168.162 323.147 168.249 322.31C168.336 321.473 168.593 320.663 169.004 319.928C169.832 318.454 170.152 316.749 169.914 315.075C169.676 313.402 168.894 311.853 167.689 310.668C165.246 308.475 161.714 307.946 158.439 308.165C157.582 306.294 159.016 304.183 160.561 302.823C162.106 301.463 163.983 300.126 164.319 298.096C164.848 294.902 160.772 292.476 157.678 293.428C154.583 294.38 152.608 297.386 151.302 300.349C150.553 302.049 149.916 303.839 148.734 305.272C147.552 306.706 145.649 307.732 143.849 307.272C141.301 306.621 140.317 303.593 139.753 301.025C138.996 297.578 138.235 294.084 138.394 290.559C138.552 287.034 139.741 283.415 142.34 281.028C146.576 277.14 153.075 277.521 158.792 278.141C157.441 276.62 157.775 274.055 159.22 272.623C159.983 271.945 160.899 271.464 161.89 271.22C162.881 270.977 163.917 270.979 164.907 271.226C166.63 271.585 168.182 272.512 169.313 273.86C170.937 275.841 171.399 278.515 172.627 280.763C173.855 283.011 176.617 284.928 178.877 283.722C180.829 282.68 181.138 279.974 180.653 277.815C180.167 275.657 179.135 273.558 179.311 271.353C179.647 267.144 184.009 264.611 187.859 262.878C191.709 261.145 196.117 258.814 196.727 254.637C196.748 253.819 196.903 253.01 197.184 252.242C197.611 251.563 198.205 251.005 198.908 250.621C210.144 243.196 221.567 235.681 234.409 231.624C235.077 231.413 235.155 231.648 235.836 231.482C236.789 230.932 236.158 229.408 235.244 228.795C234.33 228.181 233.109 227.71 232.877 226.634C232.707 225.843 233.173 225.067 233.294 224.267C233.591 222.301 231.24 220.487 229.414 221.272C228.382 219.906 230.423 218.319 232.074 217.865C237.03 216.501 242.117 215.67 247.25 215.386C247.842 215.292 248.449 215.395 248.977 215.68C249.839 216.277 249.729 217.646 249.118 218.498C248.507 219.351 247.556 219.886 246.795 220.607C245.963 221.417 245.37 222.44 245.08 223.564C244.79 224.689 244.814 225.871 245.151 226.983C247.83 228.345 250.743 229.748 253.711 229.268C256.678 228.788 259.312 225.454 257.917 222.791C256.618 220.312 252.717 219.753 252.046 217.035C251.26 213.853 255.765 211.023 254.75 207.907C254.305 206.542 252.945 205.739 251.901 204.753C250.668 203.545 249.829 201.992 249.495 200.298C249.161 198.605 249.347 196.85 250.028 195.264C248.327 195.563 246.58 195.45 244.932 194.934C243.284 194.419 241.784 193.516 240.558 192.301C238.293 190.015 236.485 186.409 233.269 186.511C230.317 186.605 227.775 190.048 225.015 188.998C224.336 188.739 223.62 188.213 222.962 188.522C222.746 188.662 222.565 188.849 222.433 189.069C222.3 189.289 222.219 189.537 222.196 189.793C221.495 193.146 222.701 196.966 220.874 199.863C218.885 203.016 214.284 203.454 211.873 206.297C210.565 207.84 210.057 209.92 208.854 211.547C207.651 213.174 205.098 214.209 203.654 212.791C204.364 211.332 204.558 209.676 204.204 208.093C203.85 206.51 202.97 205.094 201.707 204.076C200.367 203.202 198.922 202.499 197.406 201.984C195.713 201.268 194.102 200.37 192.601 199.307C191.85 198.854 191.239 198.2 190.838 197.42C190.52 196.443 190.563 195.384 190.958 194.436C191.69 192.337 192.982 190.478 194.693 189.059C196.405 187.641 198.471 186.717 200.67 186.387C202.592 186.126 204.829 186.218 206.101 184.753C206.775 183.978 207.128 182.807 208.105 182.492C208.73 182.367 209.379 182.446 209.954 182.72L217.129 185.245C217.93 185.606 218.811 185.752 219.685 185.668C220.119 185.609 220.514 185.389 220.792 185.051C221.07 184.714 221.21 184.283 221.184 183.847C220.955 182.655 219.121 182.084 219.288 180.882C219.381 180.493 219.591 180.141 219.888 179.873C222.478 177.117 225.644 174.968 229.162 173.579C232.679 172.19 236.46 171.596 240.234 171.839C241.139 173.326 239.707 175.088 238.515 176.357C237.324 177.627 236.366 179.895 237.807 180.872C238.398 181.174 239.055 181.322 239.717 181.303C241.484 181.542 243.201 182.062 244.802 182.845C247.282 183.924 249.713 185.104 252.098 186.386C251.887 184.814 251.686 183.158 252.282 181.688C252.878 180.219 254.571 179.066 256.05 179.638C257.476 180.19 258.207 182.077 259.726 182.25C261.752 182.481 262.551 179.488 261.705 177.633C260.858 175.779 259.183 174.225 259.043 172.191C258.949 170.819 259.471 169.117 258.375 168.286C257.985 168.037 257.542 167.882 257.082 167.833L229.71 162.797C228.085 162.498 225.737 162.727 225.665 164.378C225.624 165.299 226.448 166.211 226.083 167.058C225.694 167.963 224.415 167.88 223.484 168.2C222.04 168.696 221.315 170.411 221.453 171.933C221.707 173.444 222.293 174.881 223.168 176.139C221.387 175.395 218.692 175.258 216.911 174.514Z" fill="#F1F1F1"/>
<path d="M195.072 151.281C193.346 150.71 191.486 150.683 189.744 151.205C188.003 151.727 186.463 152.771 185.336 154.197C184.885 154.79 184.506 155.608 184.884 156.25C185.425 157.172 186.803 156.808 187.819 156.478C189.313 155.945 190.938 155.906 192.456 156.368C193.41 156.695 194.264 157.274 195.222 157.589C195.688 157.784 196.199 157.849 196.7 157.776C197.2 157.703 197.671 157.495 198.062 157.174C198.72 156.504 198.761 155.461 198.762 154.521C198.808 154.207 198.783 153.887 198.689 153.583C198.595 153.28 198.434 153.001 198.219 152.768C197.835 152.546 197.404 152.418 196.961 152.396C195.97 152.213 195.073 151.689 194.426 150.915" fill="#F1F1F1"/>
<path d="M204.941 148.534C204.555 148.513 204.17 148.591 203.823 148.762C203.476 148.933 203.178 149.19 202.96 149.509C202.741 149.828 202.608 150.198 202.573 150.583C202.538 150.968 202.603 151.356 202.762 151.709C203.948 152.032 205.188 152.113 206.406 151.946C207.013 151.852 207.579 151.58 208.033 151.164C208.486 150.749 208.806 150.209 208.953 149.612C207.518 149.872 206.038 149.59 204.801 148.819" fill="#F1F1F1"/>
<path d="M238.055 143.945C234.826 144.631 231.69 145.696 228.711 147.119C230.115 147.658 231.309 148.635 232.116 149.904C232.923 151.173 233.301 152.668 233.195 154.169C233.069 154.745 233.083 155.343 233.237 155.912C233.58 156.744 234.575 157.056 235.449 157.27C237.02 157.748 238.66 157.957 240.3 157.889C241.121 157.846 241.918 157.599 242.619 157.171C243.32 156.742 243.903 156.146 244.316 155.435C244.553 154.761 244.832 154.102 245.151 153.461C247.246 150.27 253.471 154.129 255.721 151.045C256.514 149.958 256.441 148.323 257.474 147.462C258.009 147.087 258.628 146.85 259.277 146.774C263.801 145.875 268.371 145.224 272.967 144.825C275.144 144.635 277.982 143.853 278 141.668C269.799 140.057 261.295 141.201 253.811 144.922C251.114 146.272 247.548 149.113 244.95 147.323C243.978 146.652 244.026 144.847 242.687 144.093C241.319 143.323 239.507 143.636 238.055 143.945Z" fill="#F1F1F1"/>
<path d="M264.876 148.96L268.726 149.7C268.017 149.668 267.31 149.788 266.652 150.052C265.993 150.315 265.398 150.716 264.907 151.228C264.416 151.74 264.039 152.35 263.802 153.019C263.566 153.687 263.474 154.399 263.534 155.106C267.14 156.31 271.07 155.138 274.868 155.298C278.666 155.458 283.085 158.171 282.436 161.916C282.24 163.048 281.586 164.18 281.926 165.278C282.165 166.047 282.843 166.593 283.226 167.302C284.025 168.778 283.387 170.646 282.379 171.988C281.371 173.33 280.016 174.401 279.132 175.828C276.931 179.376 278.181 183.962 279.492 187.926C279.871 189.424 280.571 190.821 281.543 192.022C283.485 194.086 286.65 194.266 289.484 194.307C291.546 194.337 293.909 194.235 295.214 192.637C296.917 190.551 295.726 187.296 296.847 184.847C297.866 182.623 300.46 181.669 302.811 180.993C307.117 179.753 311.506 178.699 315.577 176.827C320.632 174.502 325.357 170.878 330.913 170.579C332.472 170.495 334.07 170.679 335.571 170.252C337.073 169.825 338.499 168.527 338.385 166.97C338.288 165.64 337.163 164.663 336.283 163.66C335.404 162.658 334.713 161.116 335.521 160.055L350.086 157.335C349.053 154.521 348.249 150.816 350.621 148.985C351.477 148.325 352.623 148.061 353.352 147.262C354.594 145.9 353.97 143.555 352.536 142.398C351.102 141.24 349.163 140.971 347.327 140.819C340.941 140.288 334.518 140.639 328.119 140.989C315.612 141.675 303.104 142.36 290.597 143.046C288.079 143.184 285.172 142.973 282.862 143.832C280.907 144.559 279.517 145.894 277.281 146.363C273.154 147.229 268.611 146.643 264.876 148.96Z" fill="#F1F1F1"/>
<path d="M333.847 179.388C333.454 179.326 333.053 179.417 332.726 179.642C332.51 179.88 332.381 180.185 332.361 180.506C332.113 181.923 332.409 183.382 333.19 184.59C333.588 185.183 334.138 185.658 334.782 185.967C335.425 186.275 336.14 186.406 336.851 186.345C338.585 186.124 339.863 184.646 341.456 183.924C343.913 182.813 354.344 181.081 347.128 177.182C344.641 175.839 343.034 177.025 341.075 177.91C338.844 179.05 336.346 179.561 333.847 179.388V179.388Z" fill="#F1F1F1"/>
<path d="M397.05 146.759C396.208 147.104 395.503 147.717 395.046 148.504C394.835 148.904 394.786 149.369 394.909 149.804C395.032 150.238 395.317 150.609 395.706 150.839C396.021 150.954 396.354 151.006 396.689 150.995L400.115 151.098C401.571 151.141 403.389 151.451 403.78 152.854C404.07 153.895 403.42 155.233 404.204 155.977C404.541 156.238 404.946 156.396 405.37 156.432C406.498 156.722 407.677 156.76 408.822 156.543C411.315 155.875 410.005 154.353 410.79 152.999C411.991 150.926 411.783 152.181 413.9 150.993C415.463 150.116 417.483 148.524 416.178 146.288C413.91 142.4 400.398 145.089 397.05 146.759Z" fill="#F1F1F1"/>
<path d="M464.672 144.805L462.683 145.07C458.197 145.669 453.685 146.273 449.364 147.62C451.235 148.359 453.197 148.841 455.197 149.051C456.298 149.105 457.392 149.26 458.465 149.515C460.373 150.083 462.296 151.55 464.14 150.799C465.283 150.333 465.656 149.143 466.603 148.512C467.257 148.076 469.737 147.371 470.014 146.932C472.256 143.378 466.395 144.575 464.672 144.805Z" fill="#F1F1F1"/>
<path d="M473.408 153.846C470.751 155.331 468.285 157.137 466.067 159.221C465.132 160.1 464.177 161.193 464.262 162.473C464.375 164.174 466.187 165.161 467.757 165.825L474.117 168.518C474.888 167.43 474.182 165.929 473.385 164.861C472.588 163.792 471.64 162.556 471.992 161.27C472.394 159.803 474.184 159.303 475.684 159.05C478.129 158.638 484.723 158.671 483.931 154.732C482.997 150.09 475.862 152.474 473.408 153.846Z" fill="#F1F1F1"/>
<path d="M472.129 416.527C471.524 418.279 471.466 420.344 472.514 421.874C473.689 423.591 476.041 424.231 478.076 423.796C480.102 423.257 481.908 422.096 483.239 420.476C484.457 419.119 485.459 417.583 486.21 415.922C487.257 413.333 487.996 410.629 488.411 407.867L490.386 397.501C490.827 395.184 490.81 388.081 486.551 390.395C485.388 391.028 482.694 396.019 481.475 397.435C479.277 399.986 478.987 402.461 477.83 405.552C476.381 409.423 473.469 412.649 472.129 416.527Z" fill="#F1F1F1"/>
<path d="M697.059 469.576C695.666 469.032 694.313 468.388 693.013 467.649C691.708 471.235 691.015 475.014 690.961 478.829L700.497 473.433C701.931 472.622 703.557 471.494 703.526 469.846C703.539 469.643 703.497 469.44 703.404 469.258C703.311 469.077 703.171 468.923 702.999 468.815C702.787 468.73 702.556 468.702 702.33 468.736C700.916 468.854 699.627 469.55 698.293 470.033C696.96 470.517 695.4 470.773 694.176 470.055" fill="#F1F1F1"/>
<path d="M747.361 472.779C746.314 473.064 745.292 473.43 744.303 473.876C742.115 474.989 740.626 477.104 738.657 478.57C736.773 479.973 734.504 480.744 732.277 481.493C731.622 482.072 731.923 483.238 732.634 483.746C733.399 484.181 734.276 484.378 735.153 484.312C737.466 484.363 739.904 484.386 741.93 483.268C743.072 482.528 744.14 481.68 745.121 480.736C747.49 478.759 750.335 477.455 753.152 476.195C754.177 475.808 755.125 475.241 755.951 474.522C757.721 472.778 757.845 470.089 755.293 469.495C753.231 469.016 749.324 472.144 747.361 472.779Z" fill="#F1F1F1"/>
<path d="M769.586 458.262C769.701 457.063 769.541 455.853 769.12 454.724C768.698 453.595 768.025 452.576 767.153 451.745C767.126 454.146 767.054 456.703 765.704 458.687C764.742 460.101 763.233 461.057 762.179 462.404C761.126 463.751 760.658 465.886 761.894 467.068C762.684 467.669 763.647 468.001 764.639 468.014C767.1 468.303 769.948 468.465 771.674 466.687C772.616 465.717 773.075 464.28 774.223 463.566C774.651 463.387 775.034 463.113 775.342 462.766C775.816 462.012 775.062 461.018 774.214 460.747C773.365 460.475 772.43 460.603 771.578 460.345C770.725 460.087 769.943 459.128 770.38 458.352" fill="#F1F1F1"/>
<path d="M730.085 370.262C728.794 370.576 727.457 370.654 726.138 370.494C723.947 370.092 722.242 368.441 720.474 367.087C716.269 363.886 711.158 362.1 705.875 361.987C701.069 361.896 696.218 363.198 691.498 362.29C691.806 364.005 693.274 365.291 694.84 366.056C696.406 366.82 698.135 367.205 699.708 367.954C702.228 369.166 704.227 371.245 705.338 373.811C705.845 374.993 706.164 376.281 706.932 377.314C708.501 379.425 711.475 379.888 714.1 379.716C717.522 379.491 721.097 378.506 724.28 379.781C726.716 380.757 728.459 382.888 730.493 384.546C732.527 386.203 735.391 387.433 737.726 386.237C735.301 385.452 733.189 383.912 731.701 381.842C730.213 379.773 729.425 377.281 729.452 374.732C731.743 374.943 738.34 374.861 737.984 370.97C737.683 367.672 732.052 369.906 730.085 370.262Z" fill="#F1F1F1"/>
<path d="M700.123 397.093C700.53 394.863 702.754 392.893 702.061 390.735C701.582 389.242 699.851 388.505 698.284 388.468C696.716 388.432 695.176 388.898 693.609 388.942C692.589 388.888 691.566 388.903 690.548 388.986C687.437 389.497 685.519 392.758 682.587 393.917C680.804 394.622 678.802 394.487 676.948 394.975C672.739 396.081 670.076 400.058 667.133 403.264C662.38 408.421 656.187 412.033 649.356 413.63C646.963 414.184 644.391 414.539 642.489 416.093C639.97 418.151 639.35 421.679 638.789 424.882C637.241 433.731 634.875 442.416 631.721 450.827L641.715 452.103C643.615 452.346 645.584 452.583 647.415 452.02C648.745 451.518 650.005 450.847 651.164 450.023C655.615 447.26 660.596 445.462 665.786 444.746C668.403 444.387 671.147 444.321 673.603 445.293C676.059 446.266 678.166 448.472 678.372 451.105C679.434 450.775 680.566 450.739 681.646 451.002C682.727 451.265 683.716 451.816 684.508 452.598C686.073 454.192 687.098 456.237 687.438 458.445C687.701 459.812 687.964 461.45 689.233 462.024C690.268 462.492 691.455 461.988 692.588 461.897C696.43 461.59 699.618 466.07 703.395 465.298C707.445 464.471 708.44 458.406 712.391 457.191C714.66 456.493 717.844 457.341 718.93 455.231C719.888 453.37 717.977 451.223 718.174 449.14C718.417 446.575 721.443 445.486 723.776 444.392C731.818 440.618 735.635 429.795 731.738 421.813C729.429 417.083 724.885 413.36 724.046 408.164C723.4 404.167 724.976 399.505 722.427 396.358C721.131 394.758 718.935 393.874 718.164 391.964C717.678 390.762 717.873 389.398 717.612 388.128C717.35 386.858 716.242 385.529 714.988 385.859C711.347 386.814 710.185 398.06 708.236 400.793C705.273 404.946 699.19 402.21 700.123 397.093Z" fill="#F1F1F1"/>
<path d="M632.826 374.511C631.582 374.162 630.224 373.818 629.031 374.317C627.839 374.815 627.143 376.565 628.1 377.434C635.585 377.142 643.116 376.853 650.538 377.869C659.089 379.04 667.552 381.941 676.14 381.088C671.234 379.64 666.247 378.483 661.205 377.622L652.797 376.016C650.542 375.544 648.263 375.192 645.97 374.962C641.173 374.565 637.542 375.833 632.826 374.511Z" fill="#F1F1F1"/>
<path d="M640.32 348.443C639.699 348.392 638.929 348.347 638.607 348.881C638.3 349.392 638.652 350.066 638.487 350.638C638.261 351.42 637.237 351.62 636.43 351.514C635.623 351.407 634.75 351.152 634.035 351.541C633.673 351.789 633.4 352.147 633.259 352.563C633.117 352.979 633.115 353.429 633.251 353.846C633.543 354.675 634.016 355.429 634.635 356.052C635.692 357.385 636.897 358.593 638.226 359.654C640.798 361.553 644.284 362.468 645.904 365.224C646.133 365.758 646.484 366.231 646.93 366.604C647.708 367.097 648.722 366.722 649.56 366.339L652.495 364.998C653.024 364.808 653.496 364.487 653.868 364.065C654.538 363.155 654.126 361.861 653.563 360.881C653 359.901 652.28 358.886 652.401 357.762C652.616 355.758 655.193 354.992 656.252 353.277C657.32 351.549 656.625 349.322 656.748 347.294C656.892 344.923 658.383 341.838 655.985 340.066C653.947 338.56 651.999 339.952 650.536 341.614C647.451 345.12 645.992 348.917 640.32 348.443Z" fill="#F1F1F1"/>
<path d="M658.14 313.009C659.142 314.928 661.232 316.073 662.325 317.942C663.509 319.967 663.374 322.584 664.66 324.547C665.978 326.562 668.632 327.631 669.371 329.922C670.178 332.423 668.347 335.463 669.807 337.649C670.079 338.006 670.423 338.303 670.816 338.52C671.209 338.738 671.643 338.872 672.09 338.913C672.537 338.954 672.988 338.901 673.414 338.759C673.84 338.617 674.232 338.388 674.565 338.086C675.181 337.416 675.51 336.532 675.483 335.622C675.456 334.713 675.075 333.849 674.421 333.217C673.557 332.429 672.315 332.088 671.593 331.167C671.218 330.636 670.967 330.027 670.861 329.384C670.468 327.532 670.531 325.612 671.045 323.79C671.238 323.328 671.287 322.818 671.185 322.327C670.86 321.382 669.581 321.315 668.684 320.877C666.645 319.882 666.695 317.005 667.051 314.765C666.814 316.256 661.5 313.72 660.944 312.875C659.838 311.196 660.44 307.959 660.221 306.104C657.835 307.254 656.915 310.663 658.14 313.009Z" fill="#F1F1F1"/>
<path d="M604.61 342.533C603.629 341.435 602.152 340.286 600.837 340.948C599.834 341.454 599.558 342.841 599.951 343.893C600.43 344.915 601.168 345.794 602.091 346.444C604.831 348.703 607.781 350.742 610.172 353.369C614.449 358.07 616.715 364.412 621.368 368.743C622.303 369.746 623.541 370.417 624.893 370.65C626.249 370.776 627.771 369.909 627.926 368.557C628.055 367.443 627.278 366.446 626.519 365.621C624.712 363.655 622.734 361.846 621.027 359.792C620.239 359.003 619.744 357.969 619.624 356.861C619.615 355.755 620.624 354.597 621.695 354.871C620.392 354.538 619.425 352.367 617.513 351.959C615.914 351.618 615.528 352.608 613.625 351.792C609.997 350.236 607.151 345.377 604.61 342.533Z" fill="#F1F1F1"/>
<path d="M689.861 235.642C688.82 235.333 687.797 234.968 686.796 234.548C684.102 233.739 680.538 235.719 680.897 238.508C681.136 240.361 682.86 241.611 683.813 243.218C685.226 245.602 684.849 248.626 684.107 251.296C683.925 252.122 683.578 252.904 683.088 253.594C682.402 254.322 681.582 254.912 680.674 255.33C677.036 257.37 673.828 260.095 671.226 263.355C670.944 263.656 670.747 264.028 670.656 264.431C670.527 265.372 671.474 266.058 672.009 266.844C673.198 268.589 672.339 270.937 672.457 273.045C672.438 273.343 672.497 273.64 672.626 273.91C672.755 274.179 672.951 274.411 673.195 274.583C673.912 274.947 674.761 274.328 675.15 273.625C676.439 271.29 675.468 267.541 677.886 266.416C678.343 266.203 678.898 266.113 679.203 265.711C679.687 265.074 679.22 264.13 679.465 263.368C679.834 262.224 681.398 262.173 682.599 262.224C684.667 262.31 686.735 262.035 688.709 261.41C689.483 261.226 690.186 260.819 690.731 260.239C691.454 259.337 691.39 258.055 691.246 256.908C690.522 251.19 688.711 245.664 685.909 240.627C688.034 240.899 690.345 241.134 692.178 240.027C693.204 239.407 694.435 237.553 693.926 236.292C693.121 234.297 691.666 235.976 689.861 235.642Z" fill="#F1F1F1"/>
<path d="M417.543 267.088C417.797 268.451 418.047 269.887 417.6 271.2C417.153 272.512 415.748 273.609 414.42 273.207C413.39 272.895 412.795 271.859 412.064 271.07C407.996 266.679 398.819 269.221 396.307 263.789C395.281 261.572 395.978 258.916 395.278 256.576C394.837 255.223 393.959 254.055 392.782 253.256C391.605 252.456 390.196 252.07 388.776 252.159C387.481 252.346 386.22 252.722 385.034 253.276C377.089 256.457 368.749 258.543 360.242 259.476C358.625 259.574 357.026 259.865 355.478 260.342C351.985 261.609 349.598 264.847 347.9 268.151C346.201 271.455 344.947 275.032 342.67 277.968C340.277 281.053 336.923 283.214 333.795 285.55C332.59 286.327 331.586 287.379 330.867 288.619C330.189 290.011 330.227 291.63 330.28 293.178L330.919 311.975C331.001 314.393 331.105 316.897 332.187 319.061C333.538 321.763 336.208 323.532 338.06 325.919C339.95 328.372 340.935 331.402 340.847 334.497C340.808 335.742 340.684 337.213 341.653 337.995C342.243 338.377 342.933 338.576 343.635 338.565L369.065 340.646C373.538 341.012 378.496 341.614 381.416 345.022C382.795 346.63 383.902 348.943 386.013 349.115C386.919 349.189 387.8 348.818 388.706 348.746C390.991 348.565 392.998 350.299 394.265 352.209C396.183 355.121 397.053 358.598 396.734 362.069C396.526 364.248 395.85 366.367 395.705 368.551C395.15 376.861 402.196 384.081 402.332 392.409C402.413 397.307 400.087 401.884 397.82 406.227C401.479 411.77 398.483 419.151 399.94 425.632C401.322 431.78 406.448 436.592 407.726 442.763C408.311 445.588 408.344 449.064 410.836 450.519C411.929 451.052 413.141 451.294 414.355 451.223C421.677 451.31 428.916 449.662 435.48 446.415C438.56 444.886 441.753 442.604 442.291 439.208C442.725 436.469 441.335 433.406 442.749 431.02C444.415 428.209 448.683 428.431 451.135 426.27C455.111 422.763 452.01 416.074 453.622 411.023C455.07 406.483 460.056 404.07 462.527 399.995C463.5 398.243 464.198 396.351 464.597 394.387C465.729 389.693 466.433 384.905 466.702 380.084C466.768 377.154 466.984 374.23 467.349 371.323C470.014 354.77 486.379 343.687 491.693 327.786C492.2 326.267 492.438 324.244 491.087 323.385C490.286 323.003 489.377 322.908 488.514 323.116L476.792 324.593C475.336 324.777 473.792 324.949 472.455 324.344C471.118 323.739 470.16 322.048 470.869 320.763C472.86 317.157 468.764 312.6 466.945 308.905C462.045 298.954 456.209 289.491 449.518 280.645C449.089 280.19 448.821 279.608 448.754 278.986L452.081 279.097C450.957 275.068 449.104 270.658 445.189 269.184C442.983 268.353 440.54 268.641 438.186 268.769C431.444 269.138 424.216 268.12 417.543 267.088Z" fill="#F1F1F1"/>
<path d="M438.191 176.283C439.955 178.156 441.932 180.143 444.485 180.469C448.994 181.046 452.235 176.384 454.299 172.335C454.376 173.367 454.852 174.329 455.627 175.016C456.401 175.702 457.413 176.06 458.447 176.012C459.56 175.825 460.623 175.409 461.567 174.792C470.5 169.911 480.506 167.325 490.686 167.266C490.588 166.495 490.779 165.715 491.223 165.076C491.666 164.438 492.331 163.987 493.087 163.809C495.157 163.399 497.021 165.188 498.02 167.047C499.018 168.905 499.641 171.06 501.227 172.451C502.813 173.842 505.885 173.781 506.511 171.767C507.113 169.833 505.098 168.183 503.423 167.043C501.749 165.903 499.984 163.792 501.112 162.109C509.665 160.216 518.271 158.316 527.024 157.94C528.514 157.991 529.998 157.736 531.385 157.188C532.72 156.533 533.781 155.047 533.422 153.604C531.512 154.053 529.512 153.923 527.676 153.231C525.84 152.538 524.252 151.315 523.115 149.717C535.259 148.715 548.175 147.86 558.938 153.574C560.23 156.346 553.647 158.653 555.408 161.153C555.97 161.951 557.095 162.044 558.071 162.063C565.55 162.201 573.072 162.338 580.467 161.209C583.169 160.796 585.899 160.213 588.612 160.548C593.131 161.105 596.996 164.12 601.441 165.103C603.251 165.503 605.28 165.517 606.805 164.464C608.331 163.412 608.986 161.016 607.736 159.648C611.922 155.546 618.869 156.562 624.392 158.526C629.914 160.49 635.145 163.657 640.99 164.095C645.181 164.409 649.431 163.282 653.572 163.998C656.175 164.448 658.597 165.606 661.14 166.317C665.951 167.663 671.04 167.379 676.035 167.443C688.779 167.615 701.384 170.119 713.226 174.833C714.767 175.334 716.178 176.168 717.361 177.275C718.462 178.455 719.024 180.288 718.284 181.723L706.047 179.935C707.2 182.204 710.183 182.591 712.605 183.374C715.027 184.157 717.539 186.831 716.083 188.92C713.459 188.084 711.08 190.708 709.755 193.122C708.429 195.536 706.813 198.427 704.063 198.574C701.6 198.706 698.621 196.609 697.016 198.481C699.234 201.278 701.133 204.314 702.678 207.533C704.264 210.837 705.394 215 703.25 217.972C702.913 218.503 702.402 218.899 701.804 219.094C700.053 219.537 698.915 217.395 697.66 216.097C696.078 214.462 693.685 213.999 691.543 213.231C689.4 212.464 687.143 210.955 686.975 208.686C686.871 207.274 687.617 205.962 688.166 204.657C689.089 202.457 689.492 200.074 689.345 197.694C689.225 195.778 688.688 193.786 687.312 192.448C685.937 191.109 683.562 190.685 682.085 191.911C681.396 192.483 680.843 193.397 679.948 193.432C678.367 193.492 677.153 190.736 675.881 191.677C676.03 192.679 675.822 193.702 675.294 194.567C671.498 197.868 665.666 196.472 660.772 197.638C658.445 198.304 656.216 199.277 654.146 200.531C653.372 200.862 652.713 201.415 652.252 202.12C651.642 203.307 652.315 204.828 653.392 205.617C654.534 206.317 655.817 206.755 657.149 206.899C663.115 208.029 669.169 209.778 673.879 213.61C678.589 217.442 681.678 223.776 680.188 229.662L668.422 218.421C668.869 223.141 669.122 227.874 669.183 232.62C669.259 233.546 669.132 234.479 668.81 235.351C667.971 237.203 665.698 237.827 663.705 238.236C663.151 238.341 662.626 238.562 662.163 238.885C661.701 239.208 661.312 239.625 661.022 240.109C660.732 240.592 660.548 241.132 660.481 241.692C660.415 242.252 660.468 242.82 660.636 243.358C661.344 245.665 663.109 247.463 664.725 249.255C666.341 251.047 667.931 253.084 668.142 255.488C668.354 257.891 666.54 260.601 664.133 260.434C662.308 260.307 660.954 258.673 660.176 257.018C659.397 255.363 658.934 253.519 657.764 252.112C654.224 247.855 646.273 249.679 643.101 245.14C642.293 246.057 641.732 247.166 641.473 248.36C641.213 249.554 641.263 250.795 641.618 251.965C643.094 251.042 645.113 251.9 646.222 253.242C647.33 254.583 647.853 256.304 648.724 257.811C649.899 259.845 651.768 261.648 651.932 263.99C651.888 264.876 651.903 265.764 651.977 266.648C652.268 268.068 653.468 269.087 654.3 270.273C656.236 273.034 656.14 276.827 654.892 279.96C653.645 283.092 651.403 285.71 649.182 288.247C645.304 292.68 641.347 297.087 636.749 300.768C635.437 301.818 634.037 302.851 633.22 304.319C632.403 305.788 632.361 307.849 633.617 308.966C632.718 309.011 631.107 309.453 630.209 309.498C629.893 305.894 629.824 302.273 630.003 298.66C626.458 296.958 622.64 301.516 623.098 305.422C623.555 309.328 626.381 312.462 628.392 315.842C629.863 318.313 630.956 321.194 630.465 324.028C629.974 326.861 627.445 329.475 624.579 329.226C620.022 328.828 618.116 322.286 613.603 321.537C613.205 321.444 612.787 321.485 612.415 321.655C611.745 322.023 611.628 322.919 611.591 323.682C611.406 327.428 611.246 331.323 612.709 334.776C614.848 339.828 620.375 344.072 619.215 349.434C612.97 346.531 609.723 339.528 608.249 332.802C606.774 326.075 606.529 319.013 603.886 312.654C601.879 315.226 597.661 313.1 595.827 310.402C594.089 307.844 593.019 304.885 591.332 302.293C589.646 299.7 587.062 297.379 583.973 297.236C580.734 297.087 577.924 299.31 575.454 301.41C573.422 303.137 571.336 304.932 570.149 307.319C568.421 310.793 568.873 314.888 568.789 318.767C568.699 322.96 567.81 327.385 564.952 330.455C562.094 333.525 556.818 334.594 553.665 331.827C552.019 330.383 551.222 328.225 550.512 326.153C547.09 316.167 544.24 305.995 541.976 295.685C541.447 298.038 539.38 301.071 537.406 299.685C536.963 299.312 536.604 298.85 536.353 298.328C532.67 292.087 525.851 288.344 518.961 286.1C512.07 283.855 504.821 282.808 498.007 280.342C494.188 278.959 490.541 277.142 487.137 274.928C486.269 276.203 485.762 277.688 485.671 279.228C485.579 280.767 485.905 282.303 486.615 283.672C488.126 286.348 491.546 287.896 494.474 286.961C495.987 286.477 497.265 285.427 498.766 284.908C500.267 284.39 502.282 284.644 502.939 286.091C503.567 287.475 502.617 289.149 503.089 290.595C503.806 292.796 507.127 292.966 508.288 294.969C509.152 296.459 508.441 298.439 507.207 299.641C505.974 300.844 504.328 301.504 502.822 302.341C497.937 305.057 494.463 309.694 490.193 313.302C485.923 316.91 479.899 319.544 474.811 317.23C476.024 311.089 468.707 306.58 467.361 300.466C466.918 298.454 467.148 296.317 466.516 294.356C465.6 291.517 463.081 289.565 461.014 287.413C458.508 284.775 456.555 281.662 455.271 278.257C453.987 274.852 453.399 271.225 453.54 267.589C453.651 265.062 454.116 262.495 453.54 260.032C452.964 257.569 450.925 255.186 448.398 255.297C442.627 255.552 435.356 255.981 432.328 251.062C431.248 249.306 430.777 246.735 432.34 245.39C433.442 244.441 435.069 244.53 436.516 244.672L449.52 245.952C452.562 246.251 455.849 246.498 458.459 244.908C461.069 243.318 462.2 239.098 459.783 237.227C458.018 235.861 454.854 235.935 454.341 233.762C453.913 231.952 455.916 229.899 454.835 228.386C454.059 227.302 452.315 227.603 451.258 228.416C450.201 229.229 449.434 230.418 448.251 231.033C446.176 232.113 443.697 231.085 441.464 230.387C439.232 229.688 436.239 229.629 435.156 231.702C433.945 234.021 436.23 237.059 435.028 239.383C433.44 242.454 428.059 240.706 425.827 243.348C423.266 246.38 427.569 250.901 426.706 254.774C425.603 255.32 424.378 255.571 423.15 255.502C421.921 255.433 420.732 255.047 419.697 254.381C418.68 253.689 417.869 252.734 417.351 251.618C416.833 250.502 416.627 249.267 416.756 248.043C416.969 246.301 417.878 244.522 417.269 242.875C416.777 241.544 415.44 240.751 414.198 240.065L401.561 233.083C400.388 235.259 401.871 237.957 403.726 239.591C405.581 241.226 407.905 242.457 409.123 244.608C409.894 246.098 410.067 247.827 409.606 249.44C409.146 251.054 408.087 252.431 406.645 253.29C406.464 253.414 406.259 253.498 406.043 253.536C405.826 253.574 405.605 253.564 405.392 253.508C405.191 253.39 405.015 253.232 404.876 253.044C404.736 252.857 404.636 252.643 404.58 252.416C402.35 246.711 399.003 241.085 393.651 238.105C388.299 235.125 380.609 235.738 377.099 240.758C376.266 241.951 375.706 243.31 374.98 244.571C371.122 251.269 362.851 254.44 355.123 254.233C354.367 254.275 353.615 254.098 352.957 253.724C351.708 252.862 351.765 251.032 351.956 249.526L352.767 243.137C352.93 241.854 353.166 240.436 354.181 239.635C355.613 238.506 357.678 239.218 359.501 239.192C360.882 239.127 362.21 238.64 363.305 237.795C364.4 236.95 365.208 235.789 365.621 234.47C365.989 233.137 365.987 231.73 365.614 230.398C365.241 229.067 364.512 227.862 363.505 226.915C362.67 226.13 361.548 225.144 361.99 224.086C362.166 223.794 362.404 223.543 362.687 223.353C362.97 223.162 363.292 223.035 363.629 222.982C366.904 222.031 370.364 221.782 373.585 220.66C376.805 219.538 379.928 217.243 380.69 213.919C380.924 212.901 381.03 211.667 381.945 211.162C382.404 210.968 382.897 210.868 383.395 210.866C385.141 210.618 386.731 209.725 387.851 208.363C388.972 207.002 389.542 205.27 389.449 203.509C390.993 202.431 393.155 203.224 394.648 204.371C396.141 205.518 397.459 207.033 399.275 207.527C402.661 208.449 405.932 205.452 409.441 205.438C410.916 205.432 412.444 205.954 413.832 205.453C415.239 204.946 416.079 203.546 417.159 202.511C418.239 201.476 420.134 200.845 421.132 201.96L420.282 195.67C421.993 196.102 423.776 196.163 425.511 195.849C427.247 195.536 428.896 194.854 430.346 193.851L419.371 190.143C418.989 190.047 418.636 189.859 418.345 189.594C417.547 188.735 418.339 187.396 418.988 186.42C420.54 184.083 420.801 180.235 418.248 179.072C416.506 178.278 414.506 179.231 412.834 180.163L404.823 184.629C404.569 186.152 406.431 187.015 407.585 188.04C408.283 188.661 408.777 189.478 409.002 190.384C409.227 191.291 409.173 192.244 408.846 193.119C408.52 193.994 407.936 194.75 407.172 195.287C406.408 195.824 405.499 196.118 404.565 196.129C405.093 196.815 405.459 197.611 405.638 198.457C405.816 199.304 405.802 200.179 405.596 201.02L400.206 201.407C399.601 201.529 398.972 201.406 398.458 201.066C397.881 200.554 397.959 199.657 397.826 198.898C397.503 197.065 395.709 195.781 393.877 195.452C392.046 195.122 390.172 195.545 388.359 195.961C387.589 196.238 386.743 196.219 385.987 195.907C385.553 195.625 385.223 195.209 385.048 194.722C384.253 192.795 384.996 190.529 386.273 188.88C387.55 187.232 389.298 186.027 390.868 184.655C394.623 181.361 397.381 177.083 398.832 172.304C401.799 171.061 404.871 169.372 407.838 168.129C412.412 165.813 417.542 164.819 422.65 165.259L432.699 165.451C435.674 165.508 438.729 165.581 441.48 166.715C444.231 167.849 446.648 170.302 446.838 173.271C446.895 173.607 446.866 173.952 446.753 174.274C446.641 174.596 446.448 174.884 446.194 175.111C445.805 175.323 445.365 175.422 444.923 175.397C442.149 175.494 440.966 176.186 438.191 176.283Z" fill="#F1F1F1"/>
<path d="M358.1 207.771C358.493 207.4 358.775 206.927 358.917 206.406C359.058 205.884 359.053 205.333 358.902 204.815C357.947 204.446 356.908 204.351 355.901 204.541C354.895 204.731 353.962 205.198 353.207 205.89C352.612 206.492 352.099 207.17 351.681 207.907C350.361 210.061 349.193 212.633 349.958 215.041C350.021 215.304 350.135 215.551 350.294 215.769C350.454 215.987 350.655 216.171 350.886 216.31C351.229 216.447 351.599 216.505 351.967 216.479C353.422 216.477 354.875 216.388 356.319 216.211C357.206 216.103 358.235 215.853 358.578 215.028C359.029 213.943 357.938 212.716 358.256 211.586C358.465 211.081 358.782 210.627 359.185 210.257C359.384 210.07 359.538 209.84 359.633 209.584C359.728 209.327 359.762 209.053 359.732 208.781C359.604 208.251 358.792 207.95 358.499 208.411" fill="#F1F1F1"/>
<path d="M365.643 197.994C364.351 197.697 363.019 197.613 361.7 197.746C361.408 197.737 361.119 197.803 360.859 197.937C360.608 198.122 360.426 198.386 360.342 198.687C360.063 199.581 360.131 200.547 360.533 201.393C360.935 202.239 361.641 202.902 362.51 203.251C362.984 203.36 363.438 203.543 363.855 203.792C364.971 204.657 364.26 206.425 364.471 207.821C364.708 209.388 366.225 210.704 365.947 212.264C365.728 213.493 364.415 214.467 364.626 215.697C364.847 216.986 366.483 217.373 367.787 217.477C368.543 217.609 369.32 217.52 370.027 217.22C370.734 216.736 371.238 216.007 371.439 215.174C371.973 213.585 372.198 211.909 372.1 210.236C372.094 209.475 371.903 208.727 371.543 208.056C371.151 207.525 370.715 207.027 370.242 206.566C367.744 203.661 370.374 199.327 365.643 197.994Z" fill="#F1F1F1"/>
<path opacity="0.8" d="M694.136 425.598C694.136 425.598 502.808 315.784 420.438 336.591C420.438 336.591 245.873 355.375 225.642 396.7C225.642 396.7 170.151 223.309 149.92 217.529" stroke="#00B0FF" stroke-width="2" stroke-miterlimit="10"/>
<path opacity="0.8" d="M225.642 396.7C257.723 311.16 546.738 216.373 546.738 216.373C505.698 226.777 420.438 336.591 420.438 336.591C420.438 336.591 240.093 205.392 149.92 217.529C149.92 217.529 547.027 230.533 694.136 425.598" stroke="#00B0FF" stroke-width="2" stroke-miterlimit="10"/>
<path d="M149.92 225.91C154.549 225.91 158.301 222.158 158.301 217.529C158.301 212.901 154.549 209.148 149.92 209.148C145.291 209.148 141.538 212.901 141.538 217.529C141.538 222.158 145.291 225.91 149.92 225.91Z" fill="#00B0FF"/>
<path d="M225.642 405.081C230.271 405.081 234.023 401.328 234.023 396.7C234.023 392.071 230.271 388.319 225.642 388.319C221.013 388.319 217.26 392.071 217.26 396.7C217.26 401.328 221.013 405.081 225.642 405.081Z" fill="#00B0FF"/>
<path d="M546.738 224.754C551.367 224.754 555.119 221.002 555.119 216.373C555.119 211.745 551.367 207.993 546.738 207.993C542.109 207.993 538.357 211.745 538.357 216.373C538.357 221.002 542.109 224.754 546.738 224.754Z" fill="#00B0FF"/>
<path d="M694.136 433.979C698.765 433.979 702.517 430.227 702.517 425.598C702.517 420.97 698.765 417.218 694.136 417.218C689.507 417.218 685.754 420.97 685.754 425.598C685.754 430.227 689.507 433.979 694.136 433.979Z" fill="#00B0FF"/>
<path d="M420.438 344.972C425.067 344.972 428.82 341.219 428.82 336.591C428.82 331.963 425.067 328.21 420.438 328.21C415.809 328.21 412.057 331.963 412.057 336.591C412.057 341.219 415.809 344.972 420.438 344.972Z" fill="#00B0FF"/>
</svg>
